<svg xmlns="http://www.w3.org/2000/svg" xmlns:xlink="http://www.w3.org/1999/xlink" width="500" zoomAndPan="magnify" viewBox="0 0 375 374.999991" height="500" preserveAspectRatio="xMidYMid meet" version="1.0"><defs><g/><clipPath id="6f57755a7e"><path d="M 102.308594 91 L 272.558594 91 L 272.558594 208 L 102.308594 208 Z M 102.308594 91 " clip-rule="nonzero"/></clipPath><clipPath id="1e6d635947"><path d="M 149 87.445312 L 226 87.445312 L 226 104 L 149 104 Z M 149 87.445312 " clip-rule="nonzero"/></clipPath></defs><g fill="#000000" fill-opacity="1"><g transform="translate(14.023816, 255.610564)"><g><path d="M 13.890625 0 L 5.765625 -21.234375 L 5.640625 -21.234375 C 5.785156 -19.546875 5.859375 -17.546875 5.859375 -15.234375 L 5.859375 0 L 3.296875 0 L 3.296875 -23.953125 L 7.484375 -23.953125 L 15.0625 -4.1875 L 15.203125 -4.1875 L 22.84375 -23.953125 L 27.015625 -23.953125 L 27.015625 0 L 24.21875 0 L 24.21875 -15.4375 C 24.21875 -17.195312 24.296875 -19.117188 24.453125 -21.203125 L 24.328125 -21.203125 L 16.140625 0 Z M 13.890625 0 "/></g></g></g><g fill="#000000" fill-opacity="1"><g transform="translate(55.73919, 255.610564)"><g><path d="M 21.375 -23.953125 L 21.375 -8.453125 C 21.375 -5.722656 20.546875 -3.578125 18.890625 -2.015625 C 17.242188 -0.453125 14.984375 0.328125 12.109375 0.328125 C 9.222656 0.328125 6.988281 -0.457031 5.40625 -2.03125 C 3.832031 -3.601562 3.046875 -5.765625 3.046875 -8.515625 L 3.046875 -23.953125 L 5.828125 -23.953125 L 5.828125 -8.328125 C 5.828125 -6.328125 6.375 -4.789062 7.46875 -3.71875 C 8.5625 -2.644531 10.164062 -2.109375 12.28125 -2.109375 C 14.300781 -2.109375 15.859375 -2.644531 16.953125 -3.71875 C 18.046875 -4.800781 18.59375 -6.347656 18.59375 -8.359375 L 18.59375 -23.953125 Z M 21.375 -23.953125 "/></g></g></g><g fill="#000000" fill-opacity="1"><g transform="translate(91.592526, 255.610564)"><g><path d="M 16.8125 -6.375 C 16.8125 -4.257812 16.046875 -2.613281 14.515625 -1.4375 C 12.984375 -0.257812 10.90625 0.328125 8.28125 0.328125 C 5.445312 0.328125 3.265625 -0.0351562 1.734375 -0.765625 L 1.734375 -3.453125 C 2.710938 -3.035156 3.78125 -2.707031 4.9375 -2.46875 C 6.101562 -2.226562 7.253906 -2.109375 8.390625 -2.109375 C 10.242188 -2.109375 11.640625 -2.457031 12.578125 -3.15625 C 13.515625 -3.863281 13.984375 -4.847656 13.984375 -6.109375 C 13.984375 -6.941406 13.816406 -7.617188 13.484375 -8.140625 C 13.148438 -8.671875 12.59375 -9.160156 11.8125 -9.609375 C 11.03125 -10.054688 9.84375 -10.566406 8.25 -11.140625 C 6.03125 -11.929688 4.441406 -12.875 3.484375 -13.96875 C 2.523438 -15.0625 2.046875 -16.488281 2.046875 -18.25 C 2.046875 -20.09375 2.738281 -21.5625 4.125 -22.65625 C 5.507812 -23.75 7.34375 -24.296875 9.625 -24.296875 C 12.007812 -24.296875 14.203125 -23.859375 16.203125 -22.984375 L 15.328125 -20.5625 C 13.347656 -21.382812 11.425781 -21.796875 9.5625 -21.796875 C 8.09375 -21.796875 6.941406 -21.476562 6.109375 -20.84375 C 5.273438 -20.21875 4.859375 -19.34375 4.859375 -18.21875 C 4.859375 -17.382812 5.007812 -16.703125 5.3125 -16.171875 C 5.625 -15.640625 6.140625 -15.148438 6.859375 -14.703125 C 7.585938 -14.265625 8.703125 -13.78125 10.203125 -13.25 C 12.710938 -12.351562 14.441406 -11.390625 15.390625 -10.359375 C 16.335938 -9.335938 16.8125 -8.007812 16.8125 -6.375 Z M 16.8125 -6.375 "/></g></g></g><g fill="#000000" fill-opacity="1"><g transform="translate(121.436447, 255.610564)"><g><path d="M 3.296875 0 L 3.296875 -23.953125 L 6.078125 -23.953125 L 6.078125 -2.515625 L 16.640625 -2.515625 L 16.640625 0 Z M 3.296875 0 "/></g></g></g><g fill="#000000" fill-opacity="1"><g transform="translate(150.281536, 255.610564)"><g><path d="M 3.296875 0 L 3.296875 -23.953125 L 6.078125 -23.953125 L 6.078125 0 Z M 3.296875 0 "/></g></g></g><g fill="#000000" fill-opacity="1"><g transform="translate(171.070423, 255.610564)"><g><path d="M 21.46875 0 L 18.6875 0 L 18.6875 -11.265625 L 6.078125 -11.265625 L 6.078125 0 L 3.296875 0 L 3.296875 -23.953125 L 6.078125 -23.953125 L 6.078125 -13.765625 L 18.6875 -13.765625 L 18.6875 -23.953125 L 21.46875 -23.953125 Z M 21.46875 0 "/></g></g></g><g fill="#000000" fill-opacity="1"><g transform="translate(207.251254, 255.610564)"><g><path d="M 21.375 -23.953125 L 21.375 -8.453125 C 21.375 -5.722656 20.546875 -3.578125 18.890625 -2.015625 C 17.242188 -0.453125 14.984375 0.328125 12.109375 0.328125 C 9.222656 0.328125 6.988281 -0.457031 5.40625 -2.03125 C 3.832031 -3.601562 3.046875 -5.765625 3.046875 -8.515625 L 3.046875 -23.953125 L 5.828125 -23.953125 L 5.828125 -8.328125 C 5.828125 -6.328125 6.375 -4.789062 7.46875 -3.71875 C 8.5625 -2.644531 10.164062 -2.109375 12.28125 -2.109375 C 14.300781 -2.109375 15.859375 -2.644531 16.953125 -3.71875 C 18.046875 -4.800781 18.59375 -6.347656 18.59375 -8.359375 L 18.59375 -23.953125 Z M 21.375 -23.953125 "/></g></g></g><g fill="#000000" fill-opacity="1"><g transform="translate(243.104597, 255.610564)"><g><path d="M 22.40625 -12.203125 C 22.40625 -8.253906 21.332031 -5.234375 19.1875 -3.140625 C 17.039062 -1.046875 13.953125 0 9.921875 0 L 3.296875 0 L 3.296875 -23.953125 L 10.625 -23.953125 C 14.351562 -23.953125 17.25 -22.914062 19.3125 -20.84375 C 21.375 -18.78125 22.40625 -15.898438 22.40625 -12.203125 Z M 19.453125 -12.109375 C 19.453125 -15.234375 18.671875 -17.585938 17.109375 -19.171875 C 15.546875 -20.753906 13.21875 -21.546875 10.125 -21.546875 L 6.078125 -21.546875 L 6.078125 -2.40625 L 9.46875 -2.40625 C 12.789062 -2.40625 15.285156 -3.222656 16.953125 -4.859375 C 18.617188 -6.492188 19.453125 -8.910156 19.453125 -12.109375 Z M 19.453125 -12.109375 "/></g></g></g><g fill="#000000" fill-opacity="1"><g transform="translate(278.990675, 255.610564)"><g><path d="M 22.40625 -12.203125 C 22.40625 -8.253906 21.332031 -5.234375 19.1875 -3.140625 C 17.039062 -1.046875 13.953125 0 9.921875 0 L 3.296875 0 L 3.296875 -23.953125 L 10.625 -23.953125 C 14.351562 -23.953125 17.25 -22.914062 19.3125 -20.84375 C 21.375 -18.78125 22.40625 -15.898438 22.40625 -12.203125 Z M 19.453125 -12.109375 C 19.453125 -15.234375 18.671875 -17.585938 17.109375 -19.171875 C 15.546875 -20.753906 13.21875 -21.546875 10.125 -21.546875 L 6.078125 -21.546875 L 6.078125 -2.40625 L 9.46875 -2.40625 C 12.789062 -2.40625 15.285156 -3.222656 16.953125 -4.859375 C 18.617188 -6.492188 19.453125 -8.910156 19.453125 -12.109375 Z M 19.453125 -12.109375 "/></g></g></g><g fill="#000000" fill-opacity="1"><g transform="translate(314.876753, 255.610564)"><g><path d="M 3.296875 0 L 3.296875 -23.953125 L 6.078125 -23.953125 L 6.078125 0 Z M 3.296875 0 "/></g></g></g><g fill="#000000" fill-opacity="1"><g transform="translate(335.66564, 255.610564)"><g><path d="M 22 0 L 18.828125 0 L 5.734375 -20.09375 L 5.609375 -20.09375 C 5.773438 -17.738281 5.859375 -15.578125 5.859375 -13.609375 L 5.859375 0 L 3.296875 0 L 3.296875 -23.953125 L 6.4375 -23.953125 L 19.5 -3.9375 L 19.625 -3.9375 C 19.601562 -4.226562 19.550781 -5.171875 19.46875 -6.765625 C 19.394531 -8.367188 19.367188 -9.515625 19.390625 -10.203125 L 19.390625 -23.953125 L 22 -23.953125 Z M 22 0 "/></g></g></g><g fill="#000000" fill-opacity="1"><g transform="translate(103.007401, 283.186877)"><g><path d="M 8.421875 -7.640625 L 13.375 -7.640625 L 13.375 -0.546875 C 12.601562 -0.296875 11.816406 -0.109375 11.015625 0.015625 C 10.222656 0.140625 9.300781 0.203125 8.25 0.203125 C 6.039062 0.203125 4.320312 -0.453125 3.09375 -1.765625 C 1.863281 -3.078125 1.25 -4.921875 1.25 -7.296875 C 1.25 -8.804688 1.550781 -10.128906 2.15625 -11.265625 C 2.769531 -12.410156 3.644531 -13.28125 4.78125 -13.875 C 5.925781 -14.476562 7.269531 -14.78125 8.8125 -14.78125 C 10.363281 -14.78125 11.8125 -14.5 13.15625 -13.9375 L 12.5 -12.4375 C 11.175781 -12.988281 9.90625 -13.265625 8.6875 -13.265625 C 6.914062 -13.265625 5.53125 -12.734375 4.53125 -11.671875 C 3.539062 -10.617188 3.046875 -9.160156 3.046875 -7.296875 C 3.046875 -5.328125 3.523438 -3.832031 4.484375 -2.8125 C 5.441406 -1.789062 6.851562 -1.28125 8.71875 -1.28125 C 9.726562 -1.28125 10.710938 -1.398438 11.671875 -1.640625 L 11.671875 -6.125 L 8.421875 -6.125 Z M 8.421875 -7.640625 "/></g></g></g><g fill="#000000" fill-opacity="1"><g transform="translate(132.079597, 283.186877)"><g><path d="M 13.078125 0 L 11.375 0 L 11.375 -6.859375 L 3.703125 -6.859375 L 3.703125 0 L 2 0 L 2 -14.578125 L 3.703125 -14.578125 L 3.703125 -8.375 L 11.375 -8.375 L 11.375 -14.578125 L 13.078125 -14.578125 Z M 13.078125 0 "/></g></g></g><g fill="#000000" fill-opacity="1"><g transform="translate(161.35111, 283.186877)"><g><path d="M 11.171875 0 L 9.359375 -4.640625 L 3.515625 -4.640625 L 1.71875 0 L 0 0 L 5.765625 -14.640625 L 7.1875 -14.640625 L 12.921875 0 Z M 8.828125 -6.15625 L 7.125 -10.671875 C 6.90625 -11.242188 6.679688 -11.945312 6.453125 -12.78125 C 6.304688 -12.144531 6.097656 -11.441406 5.828125 -10.671875 L 4.109375 -6.15625 Z M 8.828125 -6.15625 "/></g></g></g><g fill="#000000" fill-opacity="1"><g transform="translate(188.479968, 283.186877)"><g><path d="M 10.84375 0 L 0.8125 0 L 0.8125 -1.328125 L 8.5625 -13.046875 L 1.0625 -13.046875 L 1.0625 -14.578125 L 10.625 -14.578125 L 10.625 -13.25 L 2.875 -1.53125 L 10.84375 -1.53125 Z M 10.84375 0 "/></g></g></g><g fill="#000000" fill-opacity="1"><g transform="translate(214.343175, 283.186877)"><g><path d="M 11.171875 0 L 9.359375 -4.640625 L 3.515625 -4.640625 L 1.71875 0 L 0 0 L 5.765625 -14.640625 L 7.1875 -14.640625 L 12.921875 0 Z M 8.828125 -6.15625 L 7.125 -10.671875 C 6.90625 -11.242188 6.679688 -11.945312 6.453125 -12.78125 C 6.304688 -12.144531 6.097656 -11.441406 5.828125 -10.671875 L 4.109375 -6.15625 Z M 8.828125 -6.15625 "/></g></g></g><g fill="#000000" fill-opacity="1"><g transform="translate(241.472041, 283.186877)"><g><path d="M 2 0 L 2 -14.578125 L 3.703125 -14.578125 L 3.703125 -1.53125 L 10.125 -1.53125 L 10.125 0 Z M 2 0 "/></g></g></g><g fill="#000000" fill-opacity="1"><g transform="translate(266.278871, 283.186877)"><g><path d="M 2 0 L 2 -14.578125 L 3.703125 -14.578125 L 3.703125 0 Z M 2 0 "/></g></g></g><g clip-path="url(#6f57755a7e)"><path fill="#000000" d="M 272.527344 93.308594 C 272.507812 93.089844 272.441406 92.867188 272.339844 92.648438 C 272.304688 92.578125 272.289062 92.511719 272.238281 92.460938 C 272.203125 92.425781 272.203125 92.375 272.167969 92.339844 C 272.015625 92.152344 271.8125 92 271.605469 91.898438 C 271.589844 91.898438 271.589844 91.882812 271.589844 91.882812 C 271.554688 91.863281 271.523438 91.882812 271.488281 91.863281 C 271.265625 91.777344 271.027344 91.746094 270.773438 91.746094 C 270.6875 91.746094 270.621094 91.746094 270.535156 91.761719 C 270.261719 91.8125 269.988281 91.914062 269.769531 92.101562 L 187.433594 160.136719 L 105.101562 92.101562 C 104.863281 91.914062 104.59375 91.8125 104.320312 91.761719 C 104.25 91.746094 104.183594 91.746094 104.113281 91.746094 C 103.859375 91.726562 103.621094 91.761719 103.382812 91.863281 C 103.347656 91.882812 103.316406 91.863281 103.296875 91.882812 C 103.28125 91.882812 103.28125 91.898438 103.28125 91.898438 C 103.078125 92 102.871094 92.136719 102.71875 92.339844 C 102.683594 92.375 102.683594 92.425781 102.652344 92.460938 C 102.601562 92.527344 102.582031 92.578125 102.546875 92.648438 C 102.445312 92.851562 102.378906 93.070312 102.363281 93.308594 C 102.363281 93.359375 102.328125 93.394531 102.328125 93.429688 L 102.328125 206.175781 C 102.328125 207.113281 103.09375 207.875 104.03125 207.875 C 104.964844 207.875 105.734375 207.113281 105.734375 206.175781 L 105.734375 97.035156 L 133.941406 120.335938 C 129.515625 128.824219 127.167969 138.3125 127.167969 147.90625 C 127.167969 180.96875 154.21875 207.875 187.453125 207.875 C 220.683594 207.875 247.722656 180.988281 247.738281 147.941406 C 247.738281 147.921875 247.738281 147.90625 247.738281 147.90625 C 247.738281 146.96875 246.972656 146.207031 246.035156 146.207031 L 224.449219 146.207031 C 223.511719 146.207031 222.746094 146.96875 222.746094 147.90625 C 222.746094 148.839844 223.511719 149.605469 224.449219 149.605469 L 244.230469 149.605469 C 243.3125 180.015625 218.214844 204.476562 187.433594 204.476562 C 156.074219 204.476562 130.554688 179.097656 130.554688 147.90625 C 130.554688 139.113281 132.667969 130.40625 136.617188 122.5625 L 186.363281 163.65625 C 186.414062 163.707031 186.480469 163.722656 186.550781 163.757812 C 186.601562 163.792969 186.652344 163.84375 186.703125 163.859375 C 186.738281 163.875 186.773438 163.875 186.804688 163.894531 C 186.855469 163.910156 186.890625 163.925781 186.941406 163.945312 C 186.992188 163.960938 187.042969 163.960938 187.113281 163.980469 C 187.128906 163.980469 187.144531 163.980469 187.144531 163.980469 C 187.214844 163.996094 187.300781 164.011719 187.367188 164.011719 C 187.402344 164.011719 187.417969 164.03125 187.453125 164.03125 C 187.488281 164.03125 187.519531 164.011719 187.554688 164.011719 C 187.621094 164.011719 187.691406 163.996094 187.757812 163.980469 C 187.757812 163.980469 187.777344 163.980469 187.777344 163.980469 C 187.84375 163.960938 187.914062 163.960938 187.980469 163.945312 C 188.03125 163.925781 188.066406 163.910156 188.097656 163.894531 C 188.132812 163.875 188.167969 163.875 188.203125 163.859375 C 188.253906 163.824219 188.304688 163.792969 188.355469 163.757812 C 188.421875 163.722656 188.472656 163.707031 188.542969 163.65625 L 269.15625 97.035156 L 269.15625 206.175781 C 269.15625 207.113281 269.921875 207.875 270.859375 207.875 C 271.792969 207.875 272.558594 207.113281 272.558594 206.175781 L 272.558594 93.429688 C 272.558594 93.378906 272.527344 93.34375 272.527344 93.308594 Z M 272.527344 93.308594 " fill-opacity="1" fill-rule="nonzero"/></g><g clip-path="url(#1e6d635947)"><path fill="#000000" d="M 151.445312 103.632812 C 151.800781 103.632812 152.175781 103.515625 152.484375 103.277344 C 162.597656 95.46875 174.683594 91.335938 187.433594 91.335938 C 200.203125 91.335938 212.292969 95.453125 222.386719 103.242188 C 223.136719 103.820312 224.210938 103.683594 224.769531 102.9375 C 225.351562 102.1875 225.214844 101.132812 224.464844 100.554688 C 213.773438 92.304688 200.96875 87.933594 187.433594 87.933594 C 173.917969 87.933594 161.113281 92.304688 150.40625 100.589844 C 149.65625 101.167969 149.519531 102.238281 150.101562 102.96875 C 150.441406 103.414062 150.933594 103.632812 151.445312 103.632812 Z M 151.445312 103.632812 " fill-opacity="1" fill-rule="nonzero"/></g></svg>